<?xml version="1.0" encoding="UTF-8"?>
<!DOCTYPE svg PUBLIC "-//W3C//DTD SVG 1.1//EN" "http://www.w3.org/Graphics/SVG/1.1/DTD/svg11.dtd">
<svg version="1.2" width="54.5mm" height="25.14mm" viewBox="0 0 5450 2514" preserveAspectRatio="xMidYMid" fill-rule="evenodd" stroke-width="28.222" stroke-linejoin="round" xmlns="http://www.w3.org/2000/svg" xmlns:ooo="http://xml.openoffice.org/svg/export" xmlns:xlink="http://www.w3.org/1999/xlink" xmlns:presentation="http://sun.com/xmlns/staroffice/presentation" xmlns:smil="http://www.w3.org/2001/SMIL20/" xmlns:anim="urn:oasis:names:tc:opendocument:xmlns:animation:1.0" xml:space="preserve">
 <defs class="ClipPathGroup">
  <clipPath id="presentation_clip_path" clipPathUnits="userSpaceOnUse">
   <rect x="0" y="0" width="5450" height="2514"/>
  </clipPath>
  <clipPath id="presentation_clip_path_shrink" clipPathUnits="userSpaceOnUse">
   <rect x="5" y="2" width="5440" height="2509"/>
  </clipPath>
 </defs>
 <defs class="TextShapeIndex">
  <g ooo:slide="id1" ooo:id-list="id3"/>
 </defs>
 <defs class="EmbeddedBulletChars">
  <g id="bullet-char-template-57356" transform="scale(0.00048828125,-0.00048828125)">
   <path d="M 580,1141 L 1163,571 580,0 -4,571 580,1141 Z"/>
  </g>
  <g id="bullet-char-template-57354" transform="scale(0.00048828125,-0.00048828125)">
   <path d="M 8,1128 L 1137,1128 1137,0 8,0 8,1128 Z"/>
  </g>
  <g id="bullet-char-template-10146" transform="scale(0.00048828125,-0.00048828125)">
   <path d="M 174,0 L 602,739 174,1481 1456,739 174,0 Z M 1358,739 L 309,1346 659,739 1358,739 Z"/>
  </g>
  <g id="bullet-char-template-10132" transform="scale(0.00048828125,-0.00048828125)">
   <path d="M 2015,739 L 1276,0 717,0 1260,543 174,543 174,936 1260,936 717,1481 1274,1481 2015,739 Z"/>
  </g>
  <g id="bullet-char-template-10007" transform="scale(0.00048828125,-0.00048828125)">
   <path d="M 0,-2 C -7,14 -16,27 -25,37 L 356,567 C 262,823 215,952 215,954 215,979 228,992 255,992 264,992 276,990 289,987 310,991 331,999 354,1012 L 381,999 492,748 772,1049 836,1024 860,1049 C 881,1039 901,1025 922,1006 886,937 835,863 770,784 769,783 710,716 594,584 L 774,223 C 774,196 753,168 711,139 L 727,119 C 717,90 699,76 672,76 641,76 570,178 457,381 L 164,-76 C 142,-110 111,-127 72,-127 30,-127 9,-110 8,-76 1,-67 -2,-52 -2,-32 -2,-23 -1,-13 0,-2 Z"/>
  </g>
  <g id="bullet-char-template-10004" transform="scale(0.00048828125,-0.00048828125)">
   <path d="M 285,-33 C 182,-33 111,30 74,156 52,228 41,333 41,471 41,549 55,616 82,672 116,743 169,778 240,778 293,778 328,747 346,684 L 369,508 C 377,444 397,411 428,410 L 1163,1116 C 1174,1127 1196,1133 1229,1133 1271,1133 1292,1118 1292,1087 L 1292,965 C 1292,929 1282,901 1262,881 L 442,47 C 390,-6 338,-33 285,-33 Z"/>
  </g>
  <g id="bullet-char-template-9679" transform="scale(0.00048828125,-0.00048828125)">
   <path d="M 813,0 C 632,0 489,54 383,161 276,268 223,411 223,592 223,773 276,916 383,1023 489,1130 632,1184 813,1184 992,1184 1136,1130 1245,1023 1353,916 1407,772 1407,592 1407,412 1353,268 1245,161 1136,54 992,0 813,0 Z"/>
  </g>
  <g id="bullet-char-template-8226" transform="scale(0.00048828125,-0.00048828125)">
   <path d="M 346,457 C 273,457 209,483 155,535 101,586 74,649 74,723 74,796 101,859 155,911 209,963 273,989 346,989 419,989 480,963 531,910 582,859 608,796 608,723 608,648 583,586 532,535 482,483 420,457 346,457 Z"/>
  </g>
  <g id="bullet-char-template-8211" transform="scale(0.00048828125,-0.00048828125)">
   <path d="M -4,459 L 1135,459 1135,606 -4,606 -4,459 Z"/>
  </g>
  <g id="bullet-char-template-61548" transform="scale(0.00048828125,-0.00048828125)">
   <path d="M 173,740 C 173,903 231,1043 346,1159 462,1274 601,1332 765,1332 928,1332 1067,1274 1183,1159 1299,1043 1357,903 1357,740 1357,577 1299,437 1183,322 1067,206 928,148 765,148 601,148 462,206 346,322 231,437 173,577 173,740 Z"/>
  </g>
 </defs>
 <defs class="TextEmbeddedBitmaps"/>
 <g>
  <g id="id2" class="Master_Slide">
   <g id="bg-id2" class="Background"/>
   <g id="bo-id2" class="BackgroundObjects"/>
  </g>
 </g>
 <g class="SlideGroup">
  <g>
   <g id="container-id1">
    <g id="id1" class="Slide" clip-path="url(#presentation_clip_path)">
     <g class="Page">
      <g class="Graphic">
       <g id="id3">
        <rect class="BoundingBox" stroke="none" fill="none" x="0" y="0" width="5450" height="2514"/>
        <defs>
         <clipPath id="clip_path_1" clipPathUnits="userSpaceOnUse">
          <path d="M 0,0 L 5449,0 5449,2513 0,2513 0,0 Z"/>
         </clipPath>
        </defs>
        <g clip-path="url(#clip_path_1)">
         <path fill="rgb(255,255,255)" stroke="none" d="M 4669,355 L 4934,595 4934,594 5243,521 5243,1211 5242,1211 5252,2136 4669,2159 4669,355 4669,355 4669,355 Z M 2593,1121 L 2868,1121 2868,2200 2836,2200 2836,1757 C 2836,1700 2789,1653 2731,1653 2674,1653 2627,1700 2627,1757 L 2627,1757 2627,2200 2593,2200 2593,1121 2593,1121 2593,1121 Z M 3158,1670 L 3314,1670 3314,2191 3888,2177 3888,1088 4041,1088 4041,2173 4630,2158 4629,1065 2731,1065 832,1065 831,2158 1420,2173 1420,1088 1573,1088 1573,2177 2147,2191 2147,1670 2302,1670 2302,2191 2357,2191 2357,1670 2513,1670 2513,2201 2565,2202 2565,1088 2668,1088 2718,1088 2743,1088 2776,1088 2896,1088 2896,2202 2948,2201 2948,1670 3103,1670 3103,2191 3158,2191 3158,1670 3158,1670 3158,1670 Z M 2729,1698 C 2713,1698 2699,1712 2700,1731 2701,1746 2706,1755 2716,1764 2718,1766 2724,1768 2727,1769 2728,1769 2729,1769 2731,1769 2732,1769 2733,1769 2734,1769 2737,1768 2743,1766 2745,1764 2756,1755 2760,1746 2761,1731 2762,1712 2748,1698 2732,1698 2731,1698 2731,1698 2731,1698 2730,1698 2730,1698 2729,1698 L 2729,1698 2729,1698 Z M 2688,1849 L 2774,1849 2809,1810 2756,1775 2701,1774 2647,1810 2688,1849 2688,1849 2688,1849 Z M 2698,1881 L 2763,1881 2763,1860 2698,1860 2698,1881 2698,1881 2698,1881 Z M 2660,1912 L 2802,1912 2802,1891 2660,1891 2660,1912 2660,1912 2660,1912 Z M 2681,1923 L 2681,2137 2780,2137 2780,1923 2681,1923 2681,1923 2681,1923 Z M 2644,2200 L 2817,2200 2817,2151 2644,2151 2644,2200 2644,2200 2644,2200 Z M 5290,2236 L 5290,2177 C 4443,2221 3590,2244 2732,2244 1873,2244 1019,2221 171,2177 L 171,2236 C 1019,2279 1873,2302 2732,2302 3590,2302 4443,2280 5290,2236 L 5290,2236 5290,2236 Z M 5361,2341 C 4491,2387 3614,2411 2732,2411 1849,2411 971,2387 100,2341 L 100,2282 C 971,2328 1849,2352 2732,2352 3614,2352 4491,2328 5361,2282 L 5361,2341 5361,2341 5361,2341 Z M 5436,2447 L 5436,2388 C 4541,2436 3639,2462 2732,2462 1824,2462 921,2436 25,2388 L 25,2446 C 921,2495 1824,2520 2732,2520 3639,2520 4541,2495 5436,2447 L 5436,2447 5436,2447 Z M 69,1309 L 188,1225 188,1360 69,1309 69,1309 69,1309 Z M 5392,1309 L 5274,1225 5274,1360 5392,1309 5392,1309 5392,1309 Z M 187,365 L 0,604 0,710 187,471 187,365 187,365 187,365 Z M 5274,365 L 5461,604 5461,710 5274,471 5274,365 5274,365 5274,365 Z M 764,208 L 514,437 218,365 218,471 515,544 515,542 764,314 764,208 764,208 764,208 Z M 4697,208 L 4697,314 4946,542 4946,544 5243,471 5243,365 4947,437 4697,208 4697,208 4697,208 Z M 1544,1121 L 1544,2177 1448,2175 1448,1121 1544,1121 1544,1121 1544,1121 Z M 3917,1121 L 4013,1121 4013,2175 3917,2177 3917,1121 3917,1121 3917,1121 Z M 4647,197 L 4647,303 C 3431,41 2030,41 814,303 L 814,197 C 2035,-66 3426,-66 4647,197 L 4647,197 4647,197 Z M 4628,335 C 3448,78 2013,78 833,335 L 832,1048 C 2039,877 3422,877 4629,1048 L 4628,335 4628,335 4628,335 Z M 4544,407 C 3400,196 2061,196 917,407 L 917,436 917,734 C 2082,565 3379,565 4544,734 L 4544,436 4544,407 4544,407 4544,407 Z M 1327,1670 L 1327,2020 1022,2020 1022,1670 1327,1670 1327,1670 1327,1670 Z M 1990,1670 L 1990,2020 1686,2020 1686,1670 1990,1670 1990,1670 1990,1670 Z M 1327,1153 L 1327,1398 1022,1398 1022,1153 1327,1153 1327,1153 1327,1153 Z M 1990,1153 L 1990,1398 1686,1398 1686,1153 1990,1153 1990,1153 1990,1153 Z M 2513,1153 L 2513,1398 2183,1398 2183,1153 2513,1153 2513,1153 2513,1153 Z M 4134,1670 L 4439,1670 4439,2020 4134,2020 4134,1670 4134,1670 4134,1670 Z M 3471,1670 L 3775,1670 3775,2020 3471,2020 3471,1670 3471,1670 3471,1670 Z M 4134,1153 L 4439,1153 4439,1398 4134,1398 4134,1153 4134,1153 4134,1153 Z M 3471,1153 L 3775,1153 3775,1398 3471,1398 3471,1153 3471,1153 3471,1153 Z M 2948,1153 L 3278,1153 3278,1398 2948,1398 2948,1153 2948,1153 2948,1153 Z M 1122,372 L 1122,706 C 1113,707 1103,708 1094,710 L 1094,376 C 1103,375 1113,373 1122,372 L 1122,372 1122,372 Z M 4367,710 C 4358,708 4348,707 4339,706 L 4339,372 C 4348,373 4358,375 4367,376 L 4367,710 4367,710 4367,710 Z M 4176,686 C 4167,685 4157,684 4148,683 L 4148,343 C 4157,345 4167,346 4176,347 L 4176,686 4176,686 4176,686 Z M 3985,667 C 3976,666 3967,665 3957,664 L 3957,319 C 3967,320 3976,321 3985,322 L 3985,667 3985,667 3985,667 Z M 3793,649 L 3793,301 C 3784,300 3774,299 3765,298 L 3765,647 C 3774,648 3784,649 3793,649 L 3793,649 3793,649 Z M 3602,635 L 3602,284 C 3593,283 3583,282 3574,282 L 3574,634 C 3583,634 3593,635 3602,635 L 3602,635 3602,635 Z M 3411,624 L 3411,270 C 3402,270 3393,269 3383,269 L 3383,623 C 3393,623 3402,624 3411,624 L 3411,624 3411,624 Z M 3221,616 L 3221,260 C 3211,260 3202,259 3192,259 L 3192,615 C 3202,615 3211,616 3221,616 L 3221,616 3221,616 Z M 3030,610 L 3030,253 C 3020,253 3011,253 3001,252 L 3001,610 C 3011,610 3020,610 3030,610 L 3030,610 3030,610 Z M 2840,607 L 2840,250 C 2831,250 2821,249 2812,249 L 2812,607 C 2821,607 2831,607 2840,607 L 2840,607 2840,607 Z M 2649,607 L 2649,249 C 2640,249 2630,250 2621,250 L 2621,607 C 2630,607 2640,607 2649,607 L 2649,607 2649,607 Z M 2458,610 L 2458,252 C 2449,253 2439,253 2430,253 L 2430,610 C 2439,610 2449,610 2458,610 L 2458,610 2458,610 Z M 2268,615 L 2268,259 C 2258,259 2249,260 2239,260 L 2239,616 C 2249,616 2258,615 2268,615 L 2268,615 2268,615 Z M 2077,623 L 2077,269 C 2067,269 2058,270 2048,270 L 2048,624 C 2058,624 2067,623 2077,623 L 2077,623 2077,623 Z M 1886,634 L 1886,282 C 1876,283 1867,283 1857,284 L 1857,636 C 1867,635 1876,634 1886,634 L 1886,634 1886,634 Z M 1695,647 L 1695,299 C 1685,300 1676,301 1666,301 L 1666,650 C 1676,649 1685,648 1695,647 L 1695,647 1695,647 Z M 1504,664 C 1495,665 1485,666 1476,667 L 1476,322 C 1485,321 1495,320 1504,319 L 1504,664 1504,664 1504,664 Z M 1313,683 C 1304,684 1294,685 1285,686 L 1285,347 C 1294,346 1304,345 1313,343 L 1313,683 1313,683 1313,683 Z M 22,751 L 22,1309 188,1185 188,537 22,751 22,751 22,751 Z M 163,646 L 163,930 55,1028 55,783 163,646 163,646 163,646 Z M 5440,751 L 5440,1309 5273,1185 5273,537 5440,751 5440,751 5440,751 Z M 5298,646 L 5298,930 5406,1028 5406,783 5298,646 5298,646 5298,646 Z M 792,355 L 792,2159 209,2136 219,1211 218,1211 218,521 527,594 527,595 792,355 792,355 792,355 Z M 285,1790 L 232,1806 231,2034 285,2031 285,1790 285,1790 285,1790 Z M 368,2026 L 444,2022 444,1742 368,1766 368,2026 368,2026 368,2026 Z M 653,1680 L 562,1707 562,2014 653,2009 653,1680 653,1680 653,1680 Z M 295,1416 L 231,1454 231,1609 295,1584 295,1416 295,1416 295,1416 Z M 452,1323 L 368,1373 368,1555 452,1522 452,1323 452,1323 452,1323 Z M 653,1204 L 562,1258 562,1478 653,1443 653,1204 653,1204 653,1204 Z M 653,588 L 562,662 562,920 653,859 653,588 653,588 653,588 Z M 5176,1790 L 5176,2031 5230,2034 5229,1806 5176,1790 5176,1790 5176,1790 Z M 5093,2026 L 5093,1766 5017,1742 5017,2022 5093,2026 5093,2026 5093,2026 Z M 4808,1680 L 4808,2009 4899,2014 4899,1707 4808,1680 4808,1680 4808,1680 Z M 5166,1416 L 5166,1584 5230,1609 5230,1454 5166,1416 5166,1416 5166,1416 Z M 5009,1323 L 5009,1522 5093,1555 5093,1373 5009,1323 5009,1323 5009,1323 Z M 4808,1204 L 4808,1443 4899,1478 4899,1258 4808,1204 4808,1204 4808,1204 Z M 4808,588 L 4808,859 4899,920 4899,662 4808,588 4808,588 Z"/>
        </g>
       </g>
      </g>
     </g>
    </g>
   </g>
  </g>
 </g>
</svg>